<svg y="0px" x="0px" viewBox="18.25 17 64 66.5" data-name="Layer 1" xmlns="http://www.w3.org/2000/svg" style="max-height: 500px" width="64" height="66.5"><title>Artboard 20</title><circle r="3" cy="77" cx="40"/><circle r="3" cy="77" cx="60"/><path d="M73.6,50.8A7,7,0,0,0,68,48a6.93,6.93,0,0,0-3.13.74,27.78,27.78,0,0,0-6.87,5l-.42.42L57,54a25.1,25.1,0,0,0-14,0l-.57.17L42,53.75a27.78,27.78,0,0,0-6.87-5A6.94,6.94,0,0,0,32,48a7,7,0,0,0-5.6,2.8c-2.45,3.27-5.37,9.29-6.18,27.05a3,3,0,1,0,6,.28c.84-18.22,4-22.37,5-23.73l.5-.67.75.37c.24.12,5.53,2.81,8,7.44a19.3,19.3,0,0,1,19.15,0c2.45-4.63,7.74-7.32,8-7.44l.75-.37.5.67c1,1.36,4.12,5.49,5,23.55a3.14,3.14,0,0,0,2.82,3,3,3,0,0,0,2.29-.86,3,3,0,0,0,.9-2.28C79,60.1,76,54.07,73.6,50.8Z"/><path d="M51,19a3,3,0,0,0-3,3v6H42a3,3,0,0,0,0,6h6v6a3,3,0,0,0,6,0V34h6a3,3,0,0,0,0-6H54V22A3,3,0,0,0,51,19Z"/><text font-family="'Helvetica Neue', Helvetica, Arial-Unicode, Arial, Sans-serif" font-weight="bold" font-size="5px" fill="#000000" y="115" x="0">Created by Gregor Cresnar</text><text font-family="'Helvetica Neue', Helvetica, Arial-Unicode, Arial, Sans-serif" font-weight="bold" font-size="5px" fill="#000000" y="120" x="0">from the Noun Project</text></svg>